<?xml version="1.0" encoding="utf-8"?>
<!-- Generator: Adobe Illustrator 26.5.3, SVG Export Plug-In . SVG Version: 6.00 Build 0)  -->
<svg version="1.1" xmlns="http://www.w3.org/2000/svg" xmlns:xlink="http://www.w3.org/1999/xlink" x="0px" y="0px"
	 viewBox="0 0 512 512" style="enable-background:new 0 0 512 512;" xml:space="preserve">
<style type="text/css">
	.st0{fill:#979799;}
	.st1{fill:#F7DD4B;}
	.st2{fill:#D93833;}
	.st3{fill:#FFFFFF;}
	.st4{fill:#FFFFFF;stroke:#FFFFFF;stroke-miterlimit:10;}
	.st5{fill:none;stroke:#FFFFFF;stroke-width:3;stroke-linecap:round;stroke-linejoin:bevel;stroke-miterlimit:10;}
</style>
<g id="Layer_1">
	<circle id="XMLID_00000034802549305335863710000003420544652543239553_" class="st0" cx="256.1" cy="252.5" r="143.9"/>
	<g>
		<g>
			<path class="st1" d="M77.5,252.5c0-44.5,15-85.4,40-117.4c-40.7,29.1-66.3,70.9-66.3,117.4c0,46.4,25.5,88.2,66.3,117.4
				C92.5,337.9,77.5,297,77.5,252.5z"/>
			<path class="st1" d="M394.7,135.1c25,32,40,72.9,40,117.4c0,44.5-15,85.4-40,117.4c40.7-29.1,66.3-70.9,66.3-117.4
				C461,206.1,435.5,164.3,394.7,135.1z"/>
		</g>
		<g>
			<path class="st1" d="M26.4,252.5c0-34.4,11.6-66,30.9-90.8c-31.5,22.5-51.3,54.9-51.3,90.8c0,35.9,19.8,68.3,51.3,90.8
				C38,318.5,26.4,286.9,26.4,252.5z"/>
			<path class="st1" d="M454.9,161.7c19.3,24.8,30.9,56.4,30.9,90.8c0,34.4-11.6,66-30.9,90.8c31.5-22.5,51.3-54.9,51.3-90.8
				C506.2,216.6,486.4,184.2,454.9,161.7z"/>
		</g>
	</g>
	<circle id="XMLID_00000060714355024023376960000007248681046574036919_" class="st2" cx="256.1" cy="252.5" r="128.5"/>
</g>
<g id="Layer_2">
	<g>
		<polygon class="st3" points="185.3,235.9 181.5,235.9 177.1,227.5 185.3,227.5 		"/>
		<path class="st4" d="M174.2,238.2v20.1v16.9c0,0.7,0.3,3.6,0.8,6.4s1.1,5.3,1.9,5.3c0-1.1,2.8-2.1,7.8-2.9
			c4.9-0.8,25.1,5.5,25.1-2c13.6-0.9,29.3-1.4,48.4-1.4c19.1,0,34.8,0.5,48.3,1.4c0,7.5,20,1.2,24.8,2c4.9,0.8,7.7,1.8,7.7,2.9
			c0.7,0,1.4-0.3,1.9-0.8c0.5-0.5,0.8-1.1,0.8-1.9v-21.5v-24.6c0-0.7-0.2-1.3-0.6-1.7s-1-0.8-1.6-0.9c-27.1-3.9-54.3-5.8-81.4-5.8
			s-54.3,1.9-81.4,5.8c-0.6,0.1-1.2,0.4-1.6,0.9C174.4,236.9,174.2,237.5,174.2,238.2z M199.5,257.4l-23.1-3.1
			c-1.3-0.2-2.3-1.3-2.3-2.6v-10.2c0-1.6,1.4-2.8,3-2.6l14.4,2c6.3,0.9,11,6.2,11,12.6v1.4C202.5,256.4,201.1,257.6,199.5,257.4z
			 M339.3,254.2l-23.1,3.1c-1.6,0.2-3-1-3-2.6v-1.4c0-6.3,4.7-11.7,11-12.6l14.4-2c1.6-0.2,3,1,3,2.6v10.2
			C341.5,253,340.6,254.1,339.3,254.2z"/>
		<g>
			<path class="st4" d="M201.3,295.9h-29.5c-1.4,0-2.6-1.2-2.6-2.6v-31.5c0-1.4,1.2-2.6,2.6-2.6h3.3c1.2,0,2.2,0.8,2.5,1.9h0
				c0.3,1.2,1.4,1.9,2.6,1.9l21-0.7c1.5,0,2.7,1.1,2.7,2.6v28.4C203.9,294.7,202.8,295.9,201.3,295.9z"/>
		</g>
		<polygon class="st3" points="334.5,235.9 330.7,235.9 330.7,227.5 338.9,227.5 		"/>
		<g>
			<path class="st5" d="M342.1,227.5h-3.8h-3.8c-6.8,0-12.5-6.6-17.4-13.2c-5-6.6-9.3-13.2-13.5-13.2H258h0h-45.7
				c-4.2,0-8.5,6.6-13.5,13.2c-5,6.6-10.6,13.2-17.4,13.2h-3.8h-3.8"/>
			<path class="st4" d="M314.7,295.9h29.5c1.4,0,2.6-1.2,2.6-2.6v-31.5c0-1.4-1.2-2.6-2.6-2.6h-3.3c-1.2,0-2.2,0.8-2.5,1.9l0,0
				c-0.3,1.2-1.4,1.9-2.6,1.9l-21-0.7c-1.5,0-2.7,1.1-2.7,2.6v28.4C312.1,294.7,313.2,295.9,314.7,295.9z"/>
		</g>
	</g>
</g>
</svg>
