<svg width="34" height="34" viewBox="0 0 34 34" fill="none" xmlns="http://www.w3.org/2000/svg">
<g id="settings_24px">
<path id="icon/action/settings_24px" fill-rule="evenodd" clip-rule="evenodd" d="M6.37181 17C6.37181 16.5183 6.41431 16.065 6.47097 15.6116L3.48181 13.2741C3.21264 13.0616 3.14181 12.6791 3.31181 12.3675L6.14514 7.4658C6.27264 7.23913 6.51348 7.11163 6.75431 7.11163C6.83931 7.11163 6.92431 7.12579 7.00931 7.15413L10.5368 8.57079C11.2735 8.0183 12.0668 7.53663 12.931 7.18246L13.4693 3.42829C13.5118 3.08829 13.8093 2.8333 14.1635 2.8333L19.8301 2.83329C20.1843 2.83329 20.4818 3.08829 20.5243 3.42829L21.0626 7.18246C21.9268 7.53663 22.7201 8.00413 23.4568 8.57079L26.9843 7.15413C27.0551 7.12579 27.1401 7.11163 27.2251 7.11163C27.4801 7.11163 27.721 7.23913 27.8485 7.46579L30.6818 12.3675C30.8518 12.6791 30.781 13.0616 30.5118 13.2741L27.5226 15.6116C27.5793 16.065 27.6218 16.5325 27.6218 17C27.6218 17.4675 27.5793 17.935 27.5226 18.3883L30.5118 20.7258C30.781 20.9383 30.866 21.3208 30.6818 21.6325L27.8485 26.5341C27.721 26.7608 27.4801 26.8883 27.2393 26.8883C27.1543 26.8883 27.0693 26.8741 26.9843 26.8458L23.4568 25.4291C22.7201 25.9816 21.9268 26.4633 21.0626 26.8175L20.5243 30.5716C20.4818 30.9116 20.1843 31.1666 19.8301 31.1666L14.1635 31.1666C13.8093 31.1666 13.5118 30.9116 13.4693 30.5716L12.931 26.8175C12.0668 26.4633 11.2735 25.9958 10.5368 25.4291L7.00931 26.8458C6.93848 26.8741 6.85348 26.8883 6.76848 26.8883C6.51348 26.8883 6.27264 26.7608 6.14514 26.5341L3.31181 21.6325C3.14181 21.3208 3.21264 20.9383 3.48181 20.7258L6.47097 18.3883C6.41431 17.935 6.37181 17.4816 6.37181 17ZM9.20514 17C9.20514 17.2975 9.21931 17.595 9.27598 18.0341L9.47431 19.635L8.21348 20.6266L6.69764 21.8308L7.68931 23.545L9.48848 22.8225L10.9901 22.2133L12.2793 23.205C12.846 23.63 13.4126 23.9558 14.0218 24.2108L15.5235 24.82L15.7501 26.4208L16.0193 28.3333L17.9885 28.3333L18.2718 26.4208L18.4985 24.82L20.0001 24.2108C20.581 23.97 21.1618 23.63 21.771 23.1766L23.046 22.2133L24.5193 22.8083L26.3185 23.5308L27.3101 21.8166L25.7801 20.6266L24.5193 19.635L24.7176 18.0341C24.7601 17.6091 24.7885 17.2833 24.7885 17C24.7885 16.7166 24.7601 16.3908 24.7176 15.9516L24.5193 14.3508L25.7801 13.3591L27.3101 12.1691L26.3185 10.455L24.5193 11.1775L23.0176 11.7866L21.7285 10.795C21.1618 10.37 20.5951 10.0441 19.986 9.78913L18.4843 9.17996L18.2576 7.57913L17.9885 5.66663L16.0051 5.66663L15.7218 7.57913L15.4951 9.17996L13.9935 9.78913C13.4126 10.03 12.8318 10.37 12.2226 10.8233L10.9476 11.7866L9.47431 11.1916L7.67514 10.4691L6.68348 12.1833L8.21348 13.3733L9.47431 14.365L9.27598 15.9658C9.23348 16.3908 9.20514 16.7025 9.20514 17ZM16.9968 22.6666C20.1276 22.6666 22.6635 20.1308 22.6635 17C22.6635 13.8691 20.1276 11.3333 16.9968 11.3333C13.866 11.3333 11.3301 13.8691 11.3301 17C11.3301 20.1308 13.866 22.6666 16.9968 22.6666ZM19.8301 17C19.8301 15.4416 18.5551 14.1666 16.9968 14.1666C15.4385 14.1666 14.1635 15.4416 14.1635 17C14.1635 18.5583 15.4385 19.8333 16.9968 19.8333C18.5551 19.8333 19.8301 18.5583 19.8301 17Z" fill="white" fill-opacity="0.8"/>
</g>
</svg>
